<?xml version="1.0" standalone="no"?><!DOCTYPE svg PUBLIC "-//W3C//DTD SVG 1.1//EN" "http://www.w3.org/Graphics/SVG/1.1/DTD/svg11.dtd"><svg t="1716216568028" class="icon" viewBox="0 0 1024 1024" version="1.1" xmlns="http://www.w3.org/2000/svg" p-id="1066" id="mx_n_1716216568030" xmlns:xlink="http://www.w3.org/1999/xlink" width="200" height="200"><path d="M257.152 252.96896c9.4208-3.4304 19.7632-3.4304 29.184 0L776.23296 431.104a42.67008 42.67008 0 0 1 6.144 77.39904l-179.11296 99.49696a42.68544 42.68544 0 0 0-16.59904 16.59904L487.168 803.712a42.65984 42.65984 0 0 1-77.39904-6.144L231.68 307.62496A42.66496 42.66496 0 0 1 257.19296 252.928l-0.04096 0.04096z m14.592 40.11008l178.13504 489.89696 99.49696-179.11296a85.2736 85.2736 0 0 1 33.152-33.152l179.11296-99.50208L271.744 293.12v-0.04096z" fill="#bfbfbf" p-id="1067"></path><path d="M387.67104 409.00096a21.32992 21.32992 0 0 1 30.16192 0l90.496 90.496a21.34016 21.34016 0 0 1-30.16704 30.16704L387.67616 439.168a21.32992 21.32992 0 0 1 0-30.16704z" fill="#bfbfbf" p-id="1068"></path></svg>